<svg width="82" height="72" viewBox="0 0 82 72" fill="none" xmlns="http://www.w3.org/2000/svg">
<path d="M55.2901 19.5744L69.8982 13.0474C71.8354 12.1818 74.037 12.1213 76.0188 12.879C78.0006 13.6368 79.6003 15.1507 80.4658 17.0879C81.3313 19.0251 81.3919 21.2267 80.6342 23.2085C79.8764 25.1903 78.3624 26.79 76.4253 27.6555L61.8171 34.1826L58.6314 66.2739L47.6753 71.1692L43.557 42.3414L28.9489 48.8685L24.9083 59.4361L13.9522 64.3314L14.7292 46.4597L0.898098 35.1151L11.8542 30.2198L22.4218 34.2604L37.0299 27.7333L18.3035 5.4326L29.2596 0.537299L55.2901 19.5744Z" fill="white"/>
</svg>
