<svg width="13" height="7" viewBox="0 0 13 7" fill="none" xmlns="http://www.w3.org/2000/svg">
    <path d="M12.8335 1.62227L7.13623 5.99727C7.08331 6.03795 7.02048 6.07022 6.95132 6.09224C6.88215 6.11426 6.80801 6.12559 6.73314 6.12559C6.65827 6.12559 6.58414 6.11426 6.51497 6.09224C6.44581 6.07022 6.38297 6.03795 6.33006 5.99727L0.632782 1.62227C0.525878 1.54018 0.46582 1.42884 0.46582 1.31274C0.46582 1.19665 0.525878 1.0853 0.632782 1.00321C0.739687 0.921119 0.88468 0.875 1.03586 0.875C1.18705 0.875 1.33204 0.921119 1.43895 1.00321L6.73314 5.06923L12.0273 1.00321C12.0803 0.962564 12.1431 0.93032 12.2123 0.908321C12.2814 0.886322 12.3556 0.875 12.4304 0.875C12.5053 0.875 12.5794 0.886322 12.6486 0.908321C12.7177 0.93032 12.7806 0.962564 12.8335 1.00321C12.8864 1.04386 12.9284 1.09212 12.9571 1.14523C12.9857 1.19834 13.0005 1.25526 13.0005 1.31274C13.0005 1.37023 12.9857 1.42715 12.9571 1.48026C12.9284 1.53337 12.8864 1.58163 12.8335 1.62227Z" fill="black"/>
</svg>
