<svg width="18" height="19" viewBox="0 0 18 19" fill="none" xmlns="http://www.w3.org/2000/svg">
<path d="M13.366 4.56894C12.7983 3.99548 12.123 3.53964 11.3788 3.22752C10.6347 2.9154 9.83625 2.75313 9.02929 2.75H8.98242C7.34606 2.75 5.77671 3.40004 4.61963 4.55713C3.46254 5.71421 2.8125 7.28356 2.8125 8.91992V12.2422C2.8125 12.6198 2.96251 12.982 3.22953 13.249C3.49655 13.516 3.85871 13.666 4.23633 13.666H5.18555C5.56317 13.666 5.92533 13.516 6.19235 13.249C6.45937 12.982 6.60938 12.6198 6.60938 12.2422V9.86914C6.60938 9.49152 6.45937 9.12936 6.19235 8.86234C5.92533 8.59532 5.56317 8.44531 5.18555 8.44531H3.78308C3.87461 7.45571 4.24632 6.5127 4.85464 5.72681C5.46296 4.94092 6.2827 4.34471 7.21776 4.00805C8.15283 3.67139 9.16448 3.60824 10.1342 3.826C11.1038 4.04376 11.9913 4.53341 12.6927 5.23755C13.5499 6.09914 14.0771 7.2345 14.1824 8.44531H12.7793C12.4017 8.44531 12.0395 8.59532 11.7725 8.86234C11.5055 9.12936 11.3555 9.49152 11.3555 9.86914V12.2422C11.3555 12.6198 11.5055 12.982 11.7725 13.249C12.0395 13.516 12.4017 13.666 12.7793 13.666H14.2031C14.2031 14.0436 14.0531 14.4058 13.7861 14.6728C13.5191 14.9398 13.1569 15.0898 12.7793 15.0898H9.45703C9.33116 15.0898 9.21044 15.1398 9.12143 15.2289C9.03243 15.3179 8.98242 15.4386 8.98242 15.5645C8.98242 15.6903 9.03243 15.811 9.12143 15.9001C9.21044 15.9891 9.33116 16.0391 9.45703 16.0391H12.7793C13.4087 16.0391 14.0123 15.789 14.4573 15.344C14.9023 14.899 15.1523 14.2954 15.1523 13.666V8.91992C15.1554 8.11283 14.9992 7.31307 14.6927 6.56645C14.3862 5.81983 13.9353 5.14103 13.366 4.56894ZM5.18555 9.39453C5.31142 9.39453 5.43214 9.44453 5.52115 9.53354C5.61015 9.62255 5.66016 9.74327 5.66016 9.86914V12.2422C5.66016 12.3681 5.61015 12.4888 5.52115 12.5778C5.43214 12.6668 5.31142 12.7168 5.18555 12.7168H4.23633C4.11045 12.7168 3.98974 12.6668 3.90073 12.5778C3.81172 12.4888 3.76172 12.3681 3.76172 12.2422V9.39453H5.18555ZM12.7793 12.7168C12.6534 12.7168 12.5327 12.6668 12.4437 12.5778C12.3547 12.4888 12.3047 12.3681 12.3047 12.2422V9.86914C12.3047 9.74327 12.3547 9.62255 12.4437 9.53354C12.5327 9.44453 12.6534 9.39453 12.7793 9.39453H14.2031V12.7168H12.7793Z" fill="#A8A8A8"/>
</svg>
