<svg width="65" height="39" viewBox="0 0 65 39" fill="none" xmlns="http://www.w3.org/2000/svg">
    <path d="M45.5716 7.42871L40.6526 17.0365V23.7193H37.4833V17.0365L32.5684 7.42871H36.0354L39.0904 13.9937L42.1006 7.42871H45.5716Z" fill="white"/>
    <path d="M58.1638 19.0271C58.1638 20.5384 57.7528 21.6993 56.932 22.5087C56.1131 23.3161 54.968 23.7193 53.4976 23.7193H51.295C49.4861 23.7193 48.2033 23.4065 47.4446 22.7809C46.686 22.1553 46.3066 21.0726 46.3066 19.5309V7.42871H53.2243C54.7845 7.42871 55.9592 7.8177 56.7484 8.59465C57.5366 9.37262 57.9313 10.4705 57.9313 11.8893C57.9313 12.713 57.7202 13.4148 57.299 13.9937C56.8769 14.5736 56.415 14.987 55.9122 15.2328C57.4133 15.9346 58.1638 17.199 58.1638 19.0271ZM52.9714 13.7906C54.1482 13.7906 54.7376 13.2036 54.7376 12.0275C54.7376 10.8524 54.1482 10.2643 52.9714 10.2643H49.5004V13.7906H52.9714ZM54.97 18.8687C54.97 18.1375 54.8395 17.585 54.5785 17.2112C54.3174 16.8375 53.8494 16.6506 53.1754 16.6506H49.5004V19.21C49.5004 19.8356 49.6564 20.2723 49.9694 20.5181C50.2845 20.7618 50.8025 20.8837 51.5234 20.8837H53.1754C54.3715 20.8837 54.97 20.2124 54.97 18.8687Z" fill="white"/>
    <path d="M39.0542 30.3201C39.0542 30.8106 38.8727 31.1955 38.5117 31.4738C38.1527 31.7531 37.6929 31.8923 37.133 31.8923C36.6895 31.8923 36.2602 31.7704 35.8441 31.5266C35.6402 31.4027 35.4709 31.225 35.3384 30.9945C35.2078 30.7619 35.1426 30.4978 35.1426 30.2023L36.0644 30.1576C36.0644 30.4206 36.1755 30.6248 36.3989 30.771C36.6242 30.9173 36.873 30.9904 37.1453 30.9904C37.754 30.9904 38.0589 30.7771 38.0589 30.3485C38.0589 29.9991 37.8519 29.794 37.439 29.731L36.5906 29.6416C36.1664 29.5797 35.8288 29.4294 35.579 29.1907C35.3312 28.953 35.2078 28.6098 35.2078 28.1629C35.2078 27.716 35.3853 27.3484 35.7422 27.0579C36.098 26.7654 36.5477 26.6191 37.0923 26.6191C37.6358 26.6191 38.0722 26.7573 38.4016 27.0335C38.733 27.3077 38.8992 27.6591 38.8992 28.0898L37.9937 28.1345C37.9121 27.712 37.6266 27.5007 37.1371 27.5007C36.8404 27.5007 36.6079 27.5647 36.4396 27.6916C36.2704 27.8166 36.1868 27.9659 36.1868 28.1385C36.1868 28.3122 36.2479 28.4493 36.3703 28.5488C36.4927 28.6463 36.6436 28.7073 36.8231 28.7316L37.6592 28.821C38.5892 28.9459 39.0542 29.4456 39.0542 30.3201Z" fill="white"/>
    <path d="M43.2466 27.5659H41.8516V31.8478H40.836V27.5659H39.4492V26.6641H43.2466V27.5659Z" fill="white"/>
    <path d="M47.8527 29.016V29.4101C47.8527 30.2774 47.6875 30.9081 47.3592 31.3032C47.0298 31.6963 46.5026 31.8923 45.7766 31.8923C45.0506 31.8923 44.5254 31.6963 44.2022 31.3032C43.8779 30.9081 43.7168 30.2693 43.7168 29.3857V29.0079C43.7168 28.2035 43.881 27.6053 44.2103 27.2123C44.5387 26.8172 45.0597 26.6191 45.7725 26.6191C46.4873 26.6191 47.0125 26.8182 47.3469 27.2163C47.6834 27.6145 47.8527 28.2147 47.8527 29.016ZM46.8371 29.3857V29.1176C46.8371 28.6524 46.7779 28.2807 46.6617 28.0045C46.5251 27.6855 46.2334 27.5251 45.7848 27.5251C45.33 27.5251 45.0353 27.6855 44.8997 28.0045C44.7875 28.2675 44.7324 28.6382 44.7324 29.1176V29.3857C44.7324 30.0113 44.8191 30.4338 44.9935 30.6532C45.0638 30.7456 45.1658 30.8259 45.2994 30.8929C45.4319 30.9579 45.5931 30.9904 45.7807 30.9904C45.9683 30.9904 46.1274 30.9599 46.2579 30.897C46.3905 30.832 46.4945 30.7538 46.5679 30.6613C46.6413 30.5699 46.6964 30.448 46.7351 30.2957C46.8024 30.058 46.8371 29.7544 46.8371 29.3857Z" fill="white"/>
    <path d="M52.6843 31.8478H51.5055L50.4899 29.9263H49.7598V31.8478H48.7441V27.7772C48.7441 27.3902 48.8339 27.1089 49.0133 26.9322C49.1928 26.7534 49.4946 26.6641 49.9188 26.6641H50.7835C51.2995 26.6641 51.7105 26.8215 52.0154 27.1353C52.3192 27.4471 52.4722 27.8442 52.4722 28.3256C52.4722 28.675 52.3794 28.9777 52.1948 29.2316C52.0123 29.4865 51.788 29.6622 51.5218 29.7597L52.6843 31.8478ZM50.7183 29.0813C50.9304 29.0813 51.1058 29.0081 51.2445 28.8619C51.3852 28.7136 51.4566 28.5288 51.4566 28.3094C51.4566 28.088 51.3882 27.9092 51.2526 27.7731C51.119 27.635 50.9406 27.5659 50.7183 27.5659H50.2125C49.9107 27.5659 49.7598 27.7193 49.7598 28.025V29.0813H50.7183Z" fill="white"/>
    <path d="M56.9496 31.8478H55.1101C54.5248 31.8478 54.1149 31.7483 53.8783 31.5472C53.6417 31.3441 53.5234 30.9886 53.5234 30.4788V26.6641H56.9496V27.5659H54.5391V28.7847H56.2277L56.1543 29.6866H54.5391V30.4056C54.5391 30.6088 54.5849 30.7499 54.6777 30.8281C54.7695 30.9073 54.9388 30.9459 55.1835 30.9459H56.9496V31.8478Z" fill="white"/>
    <path d="M32.1827 7.42871L24.413 30.7897C23.9956 31.858 23.2559 32.3912 22.1937 32.3912C21.083 32.3912 20.3195 31.858 19.9031 30.7897L12.2363 7.42871H17.2328L22.1937 23.559L27.1545 7.42871H32.1827Z" fill="white"/>
</svg>

