<svg width="17" height="17" viewBox="0 0 17 17" fill="none" xmlns="http://www.w3.org/2000/svg">
    <path d="M16.0845 15.5663L12.1727 11.6554C13.3065 10.2942 13.8719 8.54832 13.7512 6.78093C13.6305 5.01354 12.8331 3.36071 11.5249 2.16627C10.2166 0.971829 8.49824 0.32774 6.72719 0.36799C4.95615 0.40824 3.2688 1.12973 2.01616 2.38237C0.763519 3.63501 0.0420288 5.32236 0.00177892 7.09341C-0.038471 8.86445 0.605618 10.5828 1.80006 11.8911C2.9945 13.1993 4.64733 13.9967 6.41472 14.1174C8.18211 14.2381 9.92798 13.6727 11.2891 12.5389L15.2001 16.4507C15.2582 16.5087 15.3271 16.5548 15.403 16.5862C15.4788 16.6177 15.5601 16.6338 15.6423 16.6338C15.7244 16.6338 15.8057 16.6177 15.8816 16.5862C15.9574 16.5548 16.0264 16.5087 16.0845 16.4507C16.1425 16.3926 16.1886 16.3237 16.22 16.2478C16.2514 16.1719 16.2676 16.0906 16.2676 16.0085C16.2676 15.9264 16.2514 15.845 16.22 15.7692C16.1886 15.6933 16.1425 15.6244 16.0845 15.5663ZM1.26727 7.25848C1.26727 6.14596 1.59717 5.05842 2.21525 4.1334C2.83333 3.20837 3.71184 2.4874 4.73967 2.06166C5.76751 1.63591 6.89851 1.52452 7.98965 1.74156C9.08079 1.9586 10.0831 2.49433 10.8697 3.281C11.6564 4.06767 12.1921 5.06995 12.4092 6.1611C12.6262 7.25224 12.5148 8.38324 12.0891 9.41107C11.6633 10.4389 10.9424 11.3174 10.0174 11.9355C9.09232 12.5536 8.00479 12.8835 6.89227 12.8835C5.40093 12.8818 3.97115 12.2887 2.91662 11.2341C1.86209 10.1796 1.26892 8.74981 1.26727 7.25848Z" fill="black"/>
</svg>
