<svg width="9" height="13" viewBox="0 0 9 13" fill="none" xmlns="http://www.w3.org/2000/svg">
    <path d="M4.50065 0.547852C5.08929 0.547852 5.6647 0.722402 6.15413 1.04943C6.64357 1.37646 7.02503 1.84128 7.25029 2.3851C7.47555 2.92893 7.53449 3.52734 7.41965 4.10467C7.30482 4.68199 7.02136 5.2123 6.60513 5.62853C6.18891 6.04475 5.6586 6.32821 5.08128 6.44305C4.50395 6.55788 3.90554 6.49894 3.36171 6.27368C2.81788 6.04842 2.35307 5.66696 2.02604 5.17752C1.69901 4.68809 1.52446 4.11268 1.52446 3.52404L1.52744 3.39488C1.56072 2.62866 1.88851 1.90486 2.44245 1.37443C2.99639 0.844007 3.73371 0.547896 4.50065 0.547852Z" fill="black"/>
    <path d="M5.69113 7.69071C6.48046 7.69071 7.23747 8.00427 7.79561 8.56241C8.35375 9.12056 8.66732 9.87756 8.66732 10.6669V11.2621C8.66732 11.5779 8.54189 11.8807 8.31863 12.1039C8.09538 12.3272 7.79257 12.4526 7.47684 12.4526H1.52446C1.20873 12.4526 0.905924 12.3272 0.682667 12.1039C0.459409 11.8807 0.333984 11.5779 0.333984 11.2621V10.6669C0.333984 9.87756 0.647546 9.12056 1.20569 8.56241C1.76383 8.00427 2.52084 7.69071 3.31017 7.69071H5.69113Z" fill="black"/>
    <path d="M4.50065 0.547852C5.08929 0.547852 5.6647 0.722402 6.15413 1.04943C6.64357 1.37646 7.02503 1.84128 7.25029 2.3851C7.47555 2.92893 7.53449 3.52734 7.41965 4.10467C7.30482 4.68199 7.02136 5.2123 6.60513 5.62853C6.18891 6.04475 5.6586 6.32821 5.08128 6.44305C4.50395 6.55788 3.90554 6.49894 3.36171 6.27368C2.81788 6.04842 2.35307 5.66696 2.02604 5.17752C1.69901 4.68809 1.52446 4.11268 1.52446 3.52404L1.52744 3.39488C1.56072 2.62866 1.88851 1.90486 2.44245 1.37443C2.99639 0.844007 3.73371 0.547896 4.50065 0.547852Z" stroke="black"/>
    <path d="M5.69113 7.69071C6.48046 7.69071 7.23747 8.00427 7.79561 8.56241C8.35375 9.12056 8.66732 9.87756 8.66732 10.6669V11.2621C8.66732 11.5779 8.54189 11.8807 8.31863 12.1039C8.09538 12.3272 7.79257 12.4526 7.47684 12.4526H1.52446C1.20873 12.4526 0.905924 12.3272 0.682667 12.1039C0.459409 11.8807 0.333984 11.5779 0.333984 11.2621V10.6669C0.333984 9.87756 0.647546 9.12056 1.20569 8.56241C1.76383 8.00427 2.52084 7.69071 3.31017 7.69071H5.69113Z" stroke="black"/>
</svg>
